<svg width="82" height="28" viewBox="0 0 82 28" fill="none" xmlns="http://www.w3.org/2000/svg">
<g clip-path="url(#clip0_2311_22632)">
<path d="M81.0526 0H0V28H81.0526V0Z" fill="#3F2984"/>
<path d="M7.88159 10.9831C7.88159 10.6132 8.17739 10.2954 8.54293 10.2954C8.90847 10.2954 9.2215 10.5952 9.2215 10.9831V11.9179C9.8131 11.0184 10.6139 10.1897 12.1282 10.1897C13.6425 10.1897 14.5299 10.9831 15.0172 12.0064C15.6609 11.0007 16.6185 10.1897 18.1849 10.1897C20.2563 10.1897 21.5268 11.6004 21.5268 13.8574V18.9011C21.5268 19.289 21.2306 19.5888 20.8659 19.5888C20.4823 19.5888 20.1865 19.289 20.1865 18.9011V14.1749C20.1865 12.4115 19.3168 11.4243 17.855 11.4243C16.4971 11.4243 15.3832 12.4471 15.3832 14.2458V18.9015C15.3832 19.2894 15.0874 19.5893 14.7046 19.5893C14.3219 19.5893 14.0433 19.2894 14.0433 18.9015V14.1397C14.0433 12.4291 13.1555 11.4243 11.7286 11.4243C10.3017 11.4243 9.22232 12.6233 9.22232 14.299V18.9015C9.22232 19.2894 8.94417 19.5893 8.56098 19.5893C8.1778 19.5893 7.88241 19.2894 7.88241 18.9015V10.9831H7.88159Z" fill="white"/>
<path d="M27.6717 19.7125C25.1999 19.7125 23.1814 17.7902 23.1814 14.9687V14.9331C23.1814 12.3058 25.0087 10.1897 27.4977 10.1897C30.1603 10.1897 31.675 12.3939 31.675 14.8098C31.675 15.1801 31.3792 15.4447 31.0485 15.4447H24.5389C24.7305 17.4199 26.1053 18.5308 27.707 18.5308C28.8208 18.5308 29.6389 18.09 30.3002 17.4727C30.4048 17.3847 30.5263 17.3142 30.6834 17.3142C31.0141 17.3142 31.275 17.5788 31.275 17.8959C31.275 18.0548 31.2053 18.2133 31.0662 18.337C30.2133 19.1661 29.204 19.713 27.6725 19.713M30.3351 14.4399C30.196 12.7826 29.2561 11.3362 27.4637 11.3362C25.8969 11.3362 24.7133 12.6589 24.5394 14.4399H30.3351Z" fill="white"/>
<path d="M32.5632 18.9539V18.919C32.5632 18.6897 32.6501 18.5131 32.8413 18.3017L38.5328 11.5303H33.277C32.9627 11.5303 32.7022 11.2833 32.7022 10.9659C32.7022 10.6484 32.9627 10.3838 33.277 10.3838H39.6988C40.0639 10.3838 40.3425 10.6304 40.3425 10.9306V10.9659C40.3425 11.1948 40.2555 11.3714 40.0639 11.5827L34.3728 18.3542H39.8551C40.1686 18.3542 40.4295 18.6188 40.4295 18.9186C40.4295 19.2361 40.1686 19.5007 39.8551 19.5007H33.2069C32.8585 19.5007 32.5627 19.2537 32.5627 18.9535" fill="white"/>
<path d="M49.7772 18.9014C49.7772 19.2717 49.4987 19.5891 49.1159 19.5891C48.7331 19.5891 48.4546 19.2893 48.4546 18.9014V17.9138C47.8457 18.9014 46.9231 19.6948 45.3735 19.6948C43.1983 19.6948 41.9277 18.2136 41.9277 16.0451V10.9834C41.9277 10.5959 42.2063 10.2957 42.5891 10.2957C42.9718 10.2957 43.2681 10.5959 43.2681 10.9834V15.7096C43.2681 17.4022 44.1731 18.4606 45.7567 18.4606C47.3403 18.4606 48.4546 17.3141 48.4546 15.6039V10.9834C48.4546 10.5959 48.7327 10.2957 49.1159 10.2957C49.4991 10.2957 49.7772 10.5959 49.7772 10.9834V18.9014Z" fill="white"/>
<path d="M52.0929 7.2273C52.0929 6.83898 52.3887 6.53955 52.7539 6.53955C53.119 6.53955 53.4329 6.83898 53.4329 7.2273V12.2177C54.1635 11.1244 55.2253 10.1901 56.879 10.1901C59.037 10.1901 61.1781 11.9187 61.1781 14.9159V14.9515C61.1781 17.9315 59.0546 19.6949 56.879 19.6949C55.208 19.6949 54.1291 18.7782 53.4329 17.7554V18.9015C53.4329 19.2718 53.1543 19.5892 52.7711 19.5892C52.3879 19.5892 52.0925 19.2722 52.0925 18.9015V7.2273H52.0929ZM59.803 14.9691V14.9335C59.803 12.7822 58.3412 11.4071 56.6349 11.4071C54.9287 11.4071 53.3803 12.8354 53.3803 14.9159V14.9515C53.3803 17.0676 54.9643 18.4783 56.6349 18.4783C58.3055 18.4783 59.803 17.1737 59.803 14.9695" fill="white"/>
<path d="M67.5942 19.7124C64.749 19.7124 62.4343 17.3674 62.4343 14.4849C62.4343 12.7657 63.2688 11.1563 64.6666 10.1793C64.8811 10.0294 65.1757 10.0831 65.3242 10.3014C65.4719 10.5189 65.4181 10.8171 65.2036 10.967C64.0614 11.7658 63.3796 13.0811 63.3796 14.4853C63.3796 16.8398 65.27 18.756 67.5946 18.756C69.9191 18.756 71.8096 16.8398 71.8096 14.4853C71.8096 14.2202 72.0213 14.0064 72.2822 14.0064C72.5431 14.0064 72.7544 14.2207 72.7544 14.4853C72.7544 17.3678 70.4397 19.7128 67.5942 19.7128" fill="white"/>
<path d="M69.6832 17.3172C69.4727 17.4733 69.1769 17.427 69.0231 17.2131C68.8688 16.9997 68.9148 16.7003 69.1257 16.5442C70.2559 15.7062 70.5029 14.0931 69.6758 12.947C68.8487 11.8017 67.2557 11.5514 66.1254 12.3895C65.4764 12.8704 65.0969 13.6146 65.0854 14.4306C65.0817 14.6952 64.8672 14.9058 64.6058 14.9025C64.3445 14.8984 64.1365 14.6809 64.1402 14.4167C64.157 13.2972 64.6768 12.2768 65.5675 11.6165C67.1187 10.4671 69.3037 10.8104 70.4381 12.3817C71.5733 13.9538 71.2344 16.167 69.6832 17.3172Z" fill="white"/>
<path d="M67.5942 16.2849C66.6145 16.2849 65.8174 15.4771 65.8174 14.4846C65.8174 13.4921 66.6145 12.6843 67.5942 12.6843C68.5739 12.6843 69.3711 13.4921 69.3711 14.4846C69.3711 15.4771 68.5739 16.2849 67.5942 16.2849ZM67.5942 13.6416C67.1355 13.6416 66.7626 14.0197 66.7626 14.4846C66.7626 14.9495 67.1355 15.3272 67.5942 15.3272C68.0529 15.3272 68.4258 14.9495 68.4258 14.4846C68.4258 14.0197 68.0529 13.6416 67.5942 13.6416Z" fill="white"/>
</g>
<defs>
<clipPath id="clip0_2311_22632">
<rect width="81.0526" height="28" fill="white"/>
</clipPath>
</defs>
</svg>
